<svg xmlns="http://www.w3.org/2000/svg" width="512" height="512"><path d="M469 214.6a20.7 20.7 0 0 0-20.8 20.7V256A202 202 0 0 1 388.6 400a202.1 202.1 0 0 1-143.8 59.5h-.1A203.7 203.7 0 0 1 101 112.1a202.1 202.1 0 0 1 143.8-59.5h.1c28.7 0 56.5 6 82.7 17.6a20.7 20.7 0 1 0 16.8-37.8c-31.5-14-65-21.2-99.5-21.2h-.1a243.2 243.2 0 0 0-173 71.6A243.2 243.2 0 0 0 0 255.8c0 65.4 25.4 127 71.6 173.2a243.2 243.2 0 0 0 173 71.8h.2c65.3 0 126.8-25.4 173-71.6a243.2 243.2 0 0 0 71.8-173v-21c0-11.3-9.3-20.6-20.7-20.6z" class="active-path" fill="#f76829"/><path d="M506 39.8c-8.1-8-21.2-8-29.3 0l-232 231.9-52.5-52.6a20.7 20.7 0 1 0-29.3 29.2l67.3 67.3a20.6 20.6 0 0 0 29.2 0L506 69c8.1-8.1 8.1-21.2 0-29.3z" class="active-path" fill="#f76829"/></svg>