<svg xmlns="http://www.w3.org/2000/svg" width="512" height="512" viewBox="0 0 536.1 536.1"><path d="M147.1 91a68.7 68.7 0 1 1 137.5 0A68.7 68.7 0 0 1 147 91zM249 206.7c.7-15 5.8-28.8 14.1-40.3a87.7 87.7 0 0 0-18-1.8h-58.3a88 88 0 0 0-18 1.8 74.5 74.5 0 0 1 14.2 43.4 74.7 74.7 0 0 1 66-3zm11.6 6.2c20 12.5 34 33.7 36.5 58.2a63.3 63.3 0 1 0-36.5-58.3zM219 342.4a63.3 63.3 0 1 0 0-126.6 63.3 63.3 0 0 0 0 126.6zm26.9 4.3h-53.7c-44.7 0-81.1 36.4-81.1 81v65.8l.2 1 4.5 1.4A369.2 369.2 0 0 0 226 513.7c59.6 0 94.1-17 96.3-18l4.2-2.2h.4v-65.7c0-44.7-36.3-81-81-81zm104.7-65.3h-53.3a78 78 0 0 1-24 54.3A96.3 96.3 0 0 1 342 428V448c52.7-1.9 83-16.8 85-17.8l4.2-2.2h.5v-65.7c0-44.7-36.4-81-81-81zM365 149c20 12.5 34 33.7 36.5 58.2a63.3 63.3 0 1 0-36.5-58.3zm90.1 68.6h-53.3a78 78 0 0 1-24 54.3 96.3 96.3 0 0 1 68.7 92.2v20.2c52.7-1.9 83-16.8 85-17.8l4.2-2.2h.5v-65.7c0-44.7-36.4-81-81-81zM108 277c12.3 0 23.8-3.6 33.6-9.7 3.1-20.3 14-38 29.5-50l.1-3.6A63.3 63.3 0 1 0 108 277zm56.8 58.7a78.1 78.1 0 0 1-24-54l-6-.3H81c-44.7 0-81.1 36.3-81.1 81v65.7l.2 1 4.5 1.5A378.5 378.5 0 0 0 96 447.7V428c0-43.5 29-80.4 68.8-92.2z" data-original="#000000" class="active-path" data-old_color="#cdcdcd" fill="#cdcdcd"/></svg>