<svg xmlns="http://www.w3.org/2000/svg" width="512" height="512" viewBox="0 0 98 98"><path d="M49.5 38.7c1.7 0 3.2.3 4.6.9.1-2.3.9-4.4 2.2-6.1l-2.8-.3h-8.9c-1 0-1.9 0-2.7.2 1.3 2 2.1 4.2 2.1 6.7 1.7-1 3.5-1.4 5.5-1.4z" data-original="#000000" class="active-path" data-old_color="#CDCCCC" fill="#CDCDCD"/><circle cx="49.1" cy="22" r="10.5" data-original="#000000" class="active-path" data-old_color="#CDCCCC" fill="#CDCDCD"/><path d="M65.5 50.4a9.7 9.7 0 1 0-9.6-9.9c3 2 5.2 5.2 5.6 9 1.2.5 2.6.9 4 .9zM32.6 31A9.7 9.7 0 1 0 37.7 49a12 12 0 0 1 4.5-7.7v-.5c0-5.4-4.3-9.7-9.6-9.7zM71.8 30.8c3 2 5.2 5.2 5.6 9 1.2.5 2.6.8 4 .8a9.7 9.7 0 1 0-9.6-9.8z" data-original="#000000" class="active-path" data-old_color="#CDCCCC" fill="#CDCDCD"/><circle cx="49.5" cy="50.7" r="9.7" data-original="#000000" class="active-path" data-old_color="#CDCCCC" fill="#CDCDCD"/><path d="M69.6 51h-8.1a12 12 0 0 1-3.7 8.3c6 1.8 10.5 7.5 10.5 14.1v3c8-.2 12.7-2.5 13-2.6l.7-.4v-10C82 56.6 76.5 51 69.6 51z" data-original="#000000" class="active-path" data-old_color="#CDCCCC" fill="#CDCDCD"/><path d="M85.6 41.3h-8.2a12 12 0 0 1-3.6 8.3c6 1.8 10.5 7.4 10.5 14v3.2c8-.3 12.6-2.6 13-2.8l.6-.3v-10c0-6.9-5.5-12.4-12.3-12.4zM41.3 59.3a12 12 0 0 1-3.7-8.2h-9.1C21.6 51 16 56.5 16 63.3v10.2l.7.2a58 58 0 0 0 14 2.6v-3c0-6.6 4.4-12.3 10.5-14z" data-original="#000000" class="active-path" data-old_color="#CDCCCC" fill="#CDCDCD"/><path d="M53.6 61h-8.2c-6.8 0-12.3 5.6-12.3 12.4v10.2l.7.2c6.5 2 12.1 2.7 16.8 2.7 9.1 0 14.4-2.6 14.7-2.7l.7-.4v-10C66 66.6 60.5 61 53.6 61zM16.5 41c1.4 0 2.8-.4 4-1a12 12 0 0 1 5.6-8.9 9.7 9.7 0 1 0-9.6 9.8zM24.2 49.9a12 12 0 0 1-3.7-8.3h-8.1C5.6 41.6 0 47.2 0 54v10l.7.3c.3.2 5 2.5 13 2.8V64c0-6.7 4.4-12.3 10.5-14.1zM27.8 30c1.2-.4 3-1 4.6-1 2 0 4 .5 5.6 1.5.4-.4.8-.8 1-1.2a12.3 12.3 0 0 1-1.3-12.8 9.6 9.6 0 0 0-15.6 4.6c3.2 2 5.4 5.3 5.7 9zM59.1 28.7l1.2 1.5c1.6-.8 3.3-1.2 5-1.2 1.8 0 3.5.5 4.6.8.3-4 2.7-7.5 6.4-9.3a9.6 9.6 0 0 0-16-3.4A12.2 12.2 0 0 1 59 28.7z" data-original="#000000" class="active-path" data-old_color="#CDCCCC" fill="#CDCDCD"/></svg>