<svg xmlns="http://www.w3.org/2000/svg" viewBox="0 0 512.1 512.1"><path fill="#fff" d="M511 314.6L488.5 256l22.5-58.6a16 16 0 0 0-4.9-18.1l-48.7-39.5-9.9-62a16 16 0 0 0-13.3-13.3l-62-9.8-39.4-48.8a16 16 0 0 0-18.2-4.8L256 23.5 197.4 1.1a16 16 0 0 0-18.1 4.8l-39.5 48.8-62 9.8a16 16 0 0 0-13.3 13.3l-9.8 62-48.8 39.5a16 16 0 0 0-4.8 18.1L23.5 256 1.1 314.6a16 16 0 0 0 4.8 18.2l48.8 39.5 9.8 62a16 16 0 0 0 13.3 13.2l62 9.9 39.5 48.7a16 16 0 0 0 18.2 4.9l58.5-22.5 58.6 22.5a16.2 16.2 0 0 0 18.2-4.9l39.5-48.7 62-9.9a16 16 0 0 0 13.2-13.3l9.9-62 48.7-39.4a16 16 0 0 0 4.9-18.2zm-54.6-52.8l20.5 53.4-44.5 36a16 16 0 0 0-5.8 10l-9 56.5-56.5 9a16 16 0 0 0-10 5.7L315.3 477l-53.4-20.5a16 16 0 0 0-11.5 0L196.8 477l-36-44.5a16 16 0 0 0-10-5.7l-56.4-9-9-56.6a16 16 0 0 0-5.8-9.9l-44.5-36 20.5-53.4a16 16 0 0 0 0-11.5l-20.5-53.5 44.5-36c3.1-2.5 5.2-6 5.8-10l9-56.5 56.5-9a16 16 0 0 0 10-5.7l36-44.5 53.4 20.5a16 16 0 0 0 11.4 0l53.5-20.5 36 44.5c2.5 3.1 6 5.2 9.9 5.8l56.5 9 9 56.5a16 16 0 0 0 5.8 10l44.5 36-20.5 53.4a16 16 0 0 0 0 11.5z"/><path fill="#fff" d="M208 128a48 48 0 1 0 .1 96.1 48 48 0 0 0 0-96zm0 64a16 16 0 1 1 0-32 16 16 0 0 1 0 32zM304 288a48 48 0 1 0 .1 96.1 48 48 0 0 0 0-96zm0 64a16 16 0 1 1 0-32 16 16 0 0 1 0 32zM345.3 131a16 16 0 0 0-22.3 3.8l-160 224a16 16 0 1 0 26 18.5l160-224a16 16 0 0 0-3.7-22.3z"/></svg>