<svg xmlns="http://www.w3.org/2000/svg" width="512" height="512" viewBox="0 0 80.13 80.13"><path d="M48.35 17.92c3.71 2.32 6.3 6.26 6.78 10.82a11.75 11.75 0 1 0-6.78-10.82zm-7.7 24.06a11.75 11.75 0 1 0 0-23.5 11.75 11.75 0 0 0 0 23.5zm5 .8h-9.98c-8.3 0-15.05 6.76-15.05 15.05v12.2l.03.19.84.26a68.5 68.5 0 0 0 20.46 3.3c11.06 0 17.47-3.15 17.87-3.35l.78-.4h.08v-12.2c0-8.3-6.74-15.05-15.04-15.05zm19.43-12.13h-9.9c-.1 3.96-1.79 7.53-4.46 10.1a17.88 17.88 0 0 1 12.77 17.1v3.76c9.77-.36 15.4-3.13 15.77-3.31l.79-.4h.08V45.7c0-8.3-6.75-15.05-15.05-15.05zm-45.05-.8c2.3 0 4.44-.67 6.25-1.81a14.54 14.54 0 0 1 5.47-9.28c.01-.22.03-.43.03-.66a11.75 11.75 0 1 0-11.75 11.75zm10.56 10.9a14.5 14.5 0 0 1-4.47-10.04c-.37-.03-.73-.06-1.1-.06h-9.97C6.75 30.65 0 37.4 0 45.7v12.2l.03.18.84.27a70.55 70.55 0 0 0 16.95 3.18v-3.68c0-8.08 5.4-14.91 12.77-17.1z" data-original="#000000" class="active-path" data-old_color="#cdcdcd" fill="#cdcdcd"/></svg>